PathFileType	4	(X/Y/Z)	C:/Users/beibeiliu/ov580/test_trc/User2\sequence.3_training_dense_left.trc
DataRate	CameraRate	NumFrames	NumMarkers	Units	OrigDataRate	OrigDataStartFrame	OrigNumFrames
120	120	19	19	mm	120	26	75
Frame#	Time	ThumbCMC			ThumbMCP			ThumbIP			ThumbTip			IndexMCP			IndexPIP			IndexTip			MiddleMCP			MiddlePIP			MiddleTip			RingMCP			RingPIP			RingTip			PinkyMCP			PinkyPIP			PinkyTip			BackHand1			BackHand2			BackHand3	
		X0	Y0	Z0	X1	Y1	Z1	X2	Y2	Z2	X3	Y3	Z3	X4	Y4	Z4	X5	Y5	Z5	X6	Y6	Z6	X7	Y7	Z7	X8	Y8	Z8	X9	Y9	Z9	X10	Y10	Z10	X11	Y11	Z11	X12	Y12	Z12	X13	Y13	Z13	X14	Y14	Z14	X15	Y15	Z15	X16	Y16	Z16	X17	Y17	Z17	X18	Y18	Z18	
25	0.208333	-238.592	-25.6919	-27.3331	-236.726	-8.11932	-62.9127	-229.076	-7.58715	-100.04	-211.948	-22.0186	-119.845	-246.026	-59.0445	-105.49	-228.92	-34.5883	-117.748	-223.894	-20.1863	-85.4069	-226.051	-66.2264	-109.388	-208.042	-34.955	-113.962	-208.212	-29.2919	-73.3867	-199.862	-69.141	-105.099	-187.478	-38.2606	-101.883	-195.06	-37.5582	-65.0891	-184.992	-71.374	-93.1975	-176.79	-40.214	-89.6683	-186.9	-41.2105	-58.977	-211.662	-91.155	-39.6116	-213.258	-85.2219	-9.30785	-240.658	-69.3395	-24.4546	
26	0.216667	-233.47	-16.4839	-26.8686	-228.249	-3.76881	-62.3683	-223.474	-6.57495	-96.1673	-212.269	-23.6195	-114.728	-258.202	-45.212	-96.3889	-235.153	-31.9286	-116.527	-220.081	-17.1103	-88.3024	-235.785	-61.8852	-106.138	-216.019	-35.7243	-114.988	-206.251	-25.6119	-78.0117	-216.69	-66.008	-105.36	-196.965	-40.7682	-105.283	-199.773	-36.4233	-67.8868	-196.414	-78.1291	-93.7141	-185.162	-46.5248	-93.6917	-187.549	-42.9572	-62.9232	-221.758	-88.5278	-42.9897	-213.925	-85.2928	-5.15864	-244.08	-59.5643	-21.3034	
27	0.225	-222.482	-13.8742	-23.0926	-216.934	3.07251	-57.587	-218.949	0.951263	-96.8674	-214.816	-18.3241	-118.921	-259.454	-33.4635	-90.215	-237.245	-17.8324	-112.827	-215.438	-14.5454	-85.2542	-247.802	-47.2287	-102.881	-217.243	-33.5617	-114.341	-205.35	-23.7287	-74.4607	-227.017	-64.1022	-102.829	-201.005	-42.8761	-104.96	-196.774	-38.9404	-71.7813	-210.961	-79.2919	-95.1695	-192.795	-53.4997	-98.7283	-191.132	-49.0876	-65.8035	-234.097	-78.2556	-38.6683	-220.264	-81.2208	-5.82328	-245.389	-50.8484	-19.8468	
28	0.233333	-213.536	-8.08487	-22.7219	-204.325	0.482303	-53.9767	-206.447	3.03478	-91.228	-209.475	-12.7601	-113.975	-258.014	-13.9102	-88.79	-235.244	-9.64388	-109.902	-208.853	-11.9953	-79.7936	-252.659	-32.2839	-95.8133	-218.811	-25.0559	-112.783	-200.893	-28.4974	-80.2726	-236.615	-51.6059	-102.918	-207.862	-39.7622	-106.87	-199.255	-39.1795	-73.5669	-228.254	-70.6197	-94.2572	-197.998	-55.7022	-98.8592	-193.826	-53.8068	-66.3358	-246.969	-72.4102	-40.7227	-231.389	-75.5994	-3.97337	-245.719	-40.3687	-14.0177	
29	0.241667	-197.11	-11.9492	-18.2468	-190.628	-2.70564	-53.4415	-188.855	6.55026	-88.9439	-199.585	-8.59724	-115.155	-246.119	1.8342	-82.6437	-222.867	2.90195	-107.129	-197.832	-7.19301	-79.8479	-248.139	-18.9105	-96.4735	-215.29	-20.6233	-112.293	-195.464	-28.3226	-76.2004	-239.582	-38.611	-100.176	-209.767	-38.7867	-107.51	-197.914	-45.4538	-74.9322	-236.091	-58.5678	-93.0439	-203.261	-54.6079	-100.454	-197.555	-55.8492	-68.25	-249.541	-55.1875	-34.8478	-237.601	-66.3678	-6.69095	-238.871	-28.4641	-11.1966	
30	0.25	-186.115	-19.1692	-19.1036	-172.28	-6.16469	-52.273	-173.149	-3.73452	-84.337	-189.064	-10.7254	-110.367	-223.432	19.1592	-80.6592	-207.563	8.5499	-103.858	-186.154	-14.8586	-78.4178	-235.868	-4.6263	-89.5209	-207.14	-16.881	-111.158	-191.224	-34.4618	-80.0414	-235.191	-25.2085	-99.2814	-206.779	-38.4814	-106.947	-196.677	-43.03	-72.7531	-237.54	-47.1281	-93.7461	-208.196	-54.0378	-102.099	-197.676	-60.5864	-67.3812	-251.671	-43.2332	-35.5743	-239.696	-59.7197	-4.79831	-228.608	-22.0434	-9.71778	
31	0.258333	-171.22	-27.4659	-15.2762	-154.608	-17.3838	-50.0774	-157.757	-11.7259	-81.6484	-172.639	-11.2211	-109.776	-201.948	21.262	-76.855	-185.265	11.0021	-100.357	-172.217	-17.6905	-79.7846	-216.267	7.07793	-88.7764	-194.483	-12.9843	-107.77	-181.295	-35.9375	-77.6849	-227.116	-17.5749	-93.6077	-204.167	-31.3419	-106.693	-193.549	-45.9168	-73.1804	-236.335	-37.8776	-88.7419	-206.988	-53.039	-101.387	-197.893	-61.9334	-73.3506	-241.94	-30.1855	-30.4327	-233.353	-50.1363	-1.11143	-209.888	-15.4918	-7.03843	
32	0.266667	-160.539	-32.6565	-14.5726	-143.738	-28.2785	-46.5349	-142.413	-21.7923	-82.4936	-162.535	-21.0531	-105.271	-179.417	20.1141	-70.5837	-169.572	4.63327	-99.5953	-164.166	-25.5089	-79.6811	-201.226	7.6973	-84.3808	-184.428	-14.4452	-108.336	-175.388	-39.613	-77.6589	-212.71	-10.1446	-90.9318	-196.646	-32.2914	-105.692	-189.086	-48.0654	-73.0333	-227.934	-31.4088	-88.0493	-201.29	-48.9802	-97.0152	-195.754	-61.0784	-65.9942	-231.536	-20.1107	-29.0236	-226.422	-41.0669	1.55118	-200.713	-16.8782	-6.36205	
33	0.275	-148.605	-34.6049	-9.32987	-131.684	-34.7892	-43.9141	-132.94	-31.6467	-82.4676	-149.892	-33.3722	-101.59	-166.252	11.2769	-75.154	-156.884	-7.18169	-100.367	-153.701	-34.5739	-75.7582	-182.911	2.62907	-88.1983	-171.2	-24.3602	-106.151	-166.896	-47.2412	-74.579	-197.372	-16.2402	-92.8807	-184.915	-41.0445	-100.838	-181.986	-52.3451	-64.5332	-214.58	-34.2255	-90.0133	-192.107	-56.4793	-89.9554	-189.927	-66.9525	-59.9252	-216.956	-13.8094	-28.6149	-219.078	-30.1441	0.328032	-189.356	-10.7431	-5.86038	
34	0.283333	-142.579	-37.9689	-5.32277	-120.483	-45.9572	-36.8996	-120.495	-48.555	-72.2821	-139.722	-49.9175	-95.543	-148.648	-0.616454	-76.4841	-141.015	-28.1421	-96.46	-143.802	-47.8756	-70.9678	-167.105	-10.8787	-91.3447	-157.145	-44.3805	-99.986	-157.251	-56.1762	-61.0298	-185.923	-30.3178	-92.4747	-168.203	-57.9379	-91.8172	-172.46	-59.3627	-54.53	-203.787	-44.5064	-83.6986	-180.044	-70.7188	-79.6672	-180.501	-67.4907	-47.282	-206.136	-15.4453	-31.3048	-212.189	-29.4024	2.82468	-180.331	-11.5063	-7.96673	
35	0.291667	-135.781	-41.1446	0.0068171	-115.056	-51.5371	-32.5872	-112.696	-60.8987	-64.0314	-129.906	-67.5536	-87.4119	-135.993	-14.8386	-79.3	-123.923	-46.3106	-89.9521	-131.709	-59.8154	-61.5041	-158.538	-30.9765	-92.5863	-142.715	-62.526	-90.9566	-145.331	-67.1429	-51.9254	-173.603	-50.0451	-90.2167	-156.74	-76.5472	-80.003	-161.457	-68.0465	-46.7814	-187.454	-64.4395	-83.6763	-167.9	-84.9865	-64.9369	-174.912	-74.9145	-37.3154	-201.194	-22.3529	-38.0546	-208.994	-29.8483	-2.07959	-173.945	-16.4529	-9.36417	
36	0.3	-132.815	-38.5075	1.55942	-110.576	-53.8414	-26.2972	-103.802	-68.8167	-55.4632	-116.19	-81.0963	-82.9016	-132.851	-30.672	-80.6851	-119.071	-57.8085	-87.3262	-126.178	-68.9883	-52.8741	-149.433	-45.7922	-88.6826	-130.799	-75.8511	-83.6127	-140.504	-76.2237	-43.5283	-163.769	-66.5145	-83.873	-146.432	-88.9485	-70.8608	-154.274	-70.9221	-35.4825	-173.958	-80.5429	-74.5984	-156.855	-93.0134	-51.9787	-168.964	-76.6561	-25.6153	-198.922	-35.6678	-39.7947	-205.875	-34.4551	-6.87082	-172.631	-19.5982	-14.0552	
37	0.308333	-134.249	-34.0261	-0.28678	-106.746	-50.4528	-22.1459	-95.5418	-70.0234	-45.4199	-104.738	-88.2714	-70.3941	-126.07	-42.5477	-81.5567	-109.262	-67.7228	-76.6418	-115.196	-68.5723	-41.5011	-144.25	-59.3573	-83.6386	-122.454	-85.8886	-71.2741	-133.536	-77.7505	-34.0055	-154.145	-81.4251	-76.2978	-132.868	-94.7715	-53.4382	-150.389	-75.6387	-24.9817	-168.324	-92.7217	-66.2508	-148.135	-101.557	-38.8754	-156.137	-79.7222	-18.2961	-192.861	-43.658	-39.4249	-208.052	-42.8215	-9.35831	-171.109	-19.4343	-19.3669	
38	0.316667	-139.714	-26.309	-0.494852	-102.881	-39.6279	-13.4537	-86.0791	-62.5508	-36.0258	-94.5182	-86.2554	-50.7429	-123.458	-44.1699	-75.5167	-97.2272	-64.5884	-65.0365	-110.068	-63.5243	-31.4959	-131.534	-64.456	-77.0139	-108.904	-85.6378	-56.2073	-126.922	-69.9213	-21.6448	-136.69	-87.5255	-64.712	-119.471	-94.8319	-39.1282	-138.488	-74.1079	-15.6086	-149.239	-100.403	-51.9881	-134.074	-100.934	-23.0862	-153.519	-76.6795	-4.53587	-190.385	-58.9094	-39.9407	-203.455	-48.042	-10.6293	-176.283	-22.3358	-23.1319	
39	0.325	-146.582	-18.636	-2.46478	-110.325	-25.344	-8.97845	-82.9882	-48.9526	-27.2881	-85.6113	-78.7109	-39.7406	-113.923	-48.6072	-70.7785	-90.3573	-57.4309	-56.2745	-106.435	-48.202	-21.9072	-119.108	-72.9904	-67.3313	-96.6675	-76.8217	-39.7233	-118.811	-62.7173	-13.2067	-121.834	-87.0468	-51.6017	-106.701	-85.4088	-22.9039	-134.308	-66.8351	-4.6911	-129.56	-101.945	-35.8276	-119.888	-90.0105	-7.1704	-146.48	-71.4432	2.17777	-182.995	-66.9777	-38.1142	-201.414	-60.7475	-9.96797	-179.954	-28.3071	-24.8103	
40	0.333333	-150.784	-5.85531	-4.91829	-114.012	-8.56483	-9.59218	-82.664	-25.7267	-19.7041	-75.4948	-56.1376	-26.1959	-107.272	-42.0042	-64.2621	-84.8669	-40.5481	-43.5392	-105.933	-35.2087	-15.6325	-107.267	-63.9734	-56.5288	-86.5533	-59.4222	-28.7442	-115.671	-42.0971	-6.84907	-107.364	-80.2655	-38.6585	-94.5298	-68.6559	-11.7397	-128.818	-52.8304	-0.179753	-115.742	-90.7492	-25.338	-108.605	-75.8705	4.65079	-137.687	-59.8399	9.49307	-170.927	-76.4186	-34.626	-195.901	-65.5693	-8.53393	-181.673	-35.3692	-28.0325	
41	0.341667	-162.155	1.45099	-7.25451	-127.088	8.89793	-6.55054	-87.0666	-1.67076	-15.6617	-77.9112	-30.4861	-17.7995	-107.289	-25.5788	-59.3085	-83.3346	-20.0188	-39.5179	-107.499	-18.0533	-12.139	-98.2845	-48.3552	-48.4537	-83.1478	-35.7694	-19.054	-119.335	-31.3485	0.0127494	-97.3537	-64.4524	-30.327	-89.8027	-45.9354	-5.07337	-125.208	-38.7224	3.40147	-101.51	-76.627	-13.2669	-103.522	-55.1667	12.8591	-138.519	-51.8821	15.2458	-161.271	-71.8603	-29.3417	-188.817	-64.9686	-7.61943	-181.231	-34.0728	-27.5136	
42	0.35	-169.142	-0.250177	-10.8912	-138.405	20.8445	-12.0869	-100.877	12.3841	-16.5705	-84.6204	-7.81671	-14.6259	-109.875	-14.1525	-59.9907	-89.3467	-2.95963	-34.8199	-119.101	-2.59582	-12.6542	-95.5319	-33.5759	-44.3877	-86.1581	-18.9978	-14.3447	-126.079	-15.4927	-1.10854	-93.6417	-48.8384	-25.5444	-91.8286	-31.6353	2.42284	-127.846	-29.9006	5.05371	-95.9307	-61.1854	-8.47321	-103.24	-38.3379	15.2211	-136.154	-41.0184	14.6385	-155.924	-69.984	-26.1043	-183.644	-69.8063	-5.60969	-180.626	-38.9628	-28.4258	
43	0.358333	-180.732	-2.03629	-15.5971	-153.224	20.3167	-19.5025	-118.961	27.0643	-23.0881	-92.0138	6.78074	-21.6607	-112.514	-11.2485	-60.8542	-97.4048	9.62969	-42.5019	-124.517	4.93391	-17.8129	-101.167	-26.5298	-46.2468	-94.5267	-1.55639	-17.85	-129.46	-9.3828	-3.36586	-92.6531	-33.1143	-26.5014	-94.3078	-16.1031	-2.731	-131.651	-25.405	3.93952	-94.9137	-44.2425	-10.7433	-105.943	-25.6387	13.0511	-136.374	-33.7	12.9396	-149.255	-68.0539	-28.6335	-177.264	-76.3891	-4.94538	-182.25	-42.7576	-30.7333	
